<svg xmlns="http://www.w3.org/2000/svg" width="1024" height="500" viewBox="0 0 1024 500">
  <defs>
    <radialGradient id="bg" cx="32%" cy="42%" r="78%">
      <stop offset="0%" stop-color="#0d3150"/>
      <stop offset="55%" stop-color="#08182a"/>
      <stop offset="100%" stop-color="#020711"/>
    </radialGradient>
    <linearGradient id="brand" x1="0" y1="1" x2="1" y2="0">
      <stop offset="0%" stop-color="#071b52"/>
      <stop offset="55%" stop-color="#0b5f9f"/>
      <stop offset="100%" stop-color="#16b4d5"/>
    </linearGradient>
    <filter id="glow" x="-50%" y="-50%" width="200%" height="200%">
      <feGaussianBlur stdDeviation="11" result="blur"/>
      <feMerge><feMergeNode in="blur"/><feMergeNode in="SourceGraphic"/></feMerge>
    </filter>
  </defs>
  <rect width="1024" height="500" fill="url(#bg)"/>
  <circle cx="250" cy="250" r="172" fill="#07111f" stroke="#123c5c" stroke-width="2"/>
  <path d="M971.1 40 941.3 14.9 915.3 3.7 897.6 0 874.3 0 844.5 7.4 401.3 268.2 374.3 279.3 344.5 278.4 319.4 264.4 303.5 242.1 298 215.1 339.9 182.5 393.9 154.6 437.6 141.5 469.3 136.9 521.4 135.9 532.6 137.8 597.8 95.9 565.2 88.5 527.9 83.8 479.5 83.8 423.6 92.2 377.1 106.1 345.4 120.1 301.7 146.2 268.2 172.3 234.6 205.8 199.3 251.4 176.9 291.4 154.6 351 144.3 402.2 142.5 458.1 149 507.4 162.9 554 209.5 527.9 202 502.8 195.5 458.1 195.5 419 199.3 390.1 208.6 352 219.7 322.2 234.6 293.3 256.1 261.6 275.6 293.3 288.6 306.3 306.3 318.4 328.7 327.7 346.4 331.5 382.7 329.6 401.3 324 430.2 309.1 862.2 54.9 877.1 51.2 892.9 51.2 915.3 58.7 937.6 79.1 947.9 106.1 947.9 123.8 944.1 138.7 936.7 152.7 919.9 169.5 46.6 676 32.6 689 16.8 710.4 6.5 731.8 0 759.8 0 778.4 5.6 803.5 13 820.3 26.1 838.9 55.9 864.1 82.9 875.2 120.1 879 156.4 870.6 610.8 608 630.4 600.6 661.1 601.5 685.3 614.5 702 637.8 705.8 654.6 704.8 665.7 655.5 704.8 610.8 726.3 581.9 735.6 531.7 743.9 466.5 743.9 397.6 784.9 430.2 792.4 472.1 797 528.9 796.1 570.8 789.6 600.6 782.1 649.9 763.5 685.3 744.9 731.8 711.4 760.7 683.4 793.3 642.5 821.2 593.1 841.7 538.2 852.9 484.2 854.7 422.7 850.1 380.8 837.1 330.5 790.5 357.5 801.7 417.1 802.6 447.9 798 490.7 789.6 527 777.5 559.6 763.5 588.5 746.7 613.6 731.8 589.4 716 573.6 698.3 561.5 679.7 553.1 660.1 548.4 622.9 549.3 592.2 560.5 132.2 825.9 101.5 827.7 79.1 819.4 59.6 799.8 51.2 774.7 54.9 746.7 65.2 728.1 80.1 713.2 625.7 399.4 956.2 205.8 973 189 986 169.5 994.4 149 999.1 124.8 999.1 106.1 995.3 85.7 985.1 60.5Z" transform="translate(130 107) scale(.25)" fill="url(#brand)" filter="url(#glow)"/>
  <text x="500" y="215" fill="#ffffff" font-family="Arial, Helvetica, sans-serif" font-size="72" font-weight="700" letter-spacing="3">QUIZ ARENA</text>
  <text x="504" y="276" fill="#8ecce7" font-family="Arial, Helvetica, sans-serif" font-size="30" font-weight="500">Wissen. Spielen. Lernen.</text>
  <rect x="504" y="321" width="290" height="2" rx="1" fill="#184c6f"/>
  <text x="504" y="363" fill="#b7cad8" font-family="Arial, Helvetica, sans-serif" font-size="22">Quiz • Lernen • Fortschritt</text>
</svg>